ply
format ascii 1.0
element vertex 152
property float x
property float y
property float z
element face 300
property list uchar int vertex_index
end_header
0.0 0.0 0.0
0.0 0.0 0.20000000298023224
0.0 0.0 0.4000000059604645
0.0 0.0 0.6000000238418579
0.0 0.0 0.800000011920929
0.0 0.0 1.0
0.0 0.20000000298023224 0.0
0.0 0.20000000298023224 0.20000000298023224
0.0 0.20000000298023224 0.4000000059604645
0.0 0.20000000298023224 0.6000000238418579
0.0 0.20000000298023224 0.800000011920929
0.0 0.20000000298023224 1.0
0.0 0.4000000059604645 0.0
0.0 0.4000000059604645 0.20000000298023224
0.0 0.4000000059604645 0.4000000059604645
0.0 0.4000000059604645 0.6000000238418579
0.0 0.4000000059604645 0.800000011920929
0.0 0.4000000059604645 1.0
0.0 0.6000000238418579 0.0
0.0 0.6000000238418579 0.20000000298023224
0.0 0.6000000238418579 0.4000000059604645
0.0 0.6000000238418579 0.6000000238418579
0.0 0.6000000238418579 0.800000011920929
0.0 0.6000000238418579 1.0
0.0 0.800000011920929 0.0
0.0 0.800000011920929 0.20000000298023224
0.0 0.800000011920929 0.4000000059604645
0.0 0.800000011920929 0.6000000238418579
0.0 0.800000011920929 0.800000011920929
0.0 0.800000011920929 1.0
0.0 1.0 0.0
0.0 1.0 0.20000000298023224
0.0 1.0 0.4000000059604645
0.0 1.0 0.6000000238418579
0.0 1.0 0.800000011920929
0.0 1.0 1.0
0.20000000298023224 0.0 0.0
0.20000000298023224 0.0 0.20000000298023224
0.20000000298023224 0.0 0.4000000059604645
0.20000000298023224 0.0 0.6000000238418579
0.20000000298023224 0.0 0.800000011920929
0.20000000298023224 0.0 1.0
0.20000000298023224 0.20000000298023224 0.0
0.20000000298023224 0.20000000298023224 1.0
0.20000000298023224 0.4000000059604645 0.0
0.20000000298023224 0.4000000059604645 1.0
0.20000000298023224 0.6000000238418579 0.0
0.20000000298023224 0.6000000238418579 1.0
0.20000000298023224 0.800000011920929 0.0
0.20000000298023224 0.800000011920929 1.0
0.20000000298023224 1.0 0.0
0.20000000298023224 1.0 0.20000000298023224
0.20000000298023224 1.0 0.4000000059604645
0.20000000298023224 1.0 0.6000000238418579
0.20000000298023224 1.0 0.800000011920929
0.20000000298023224 1.0 1.0
0.4000000059604645 0.0 0.0
0.4000000059604645 0.0 0.20000000298023224
0.4000000059604645 0.0 0.4000000059604645
0.4000000059604645 0.0 0.6000000238418579
0.4000000059604645 0.0 0.800000011920929
0.4000000059604645 0.0 1.0
0.4000000059604645 0.20000000298023224 0.0
0.4000000059604645 0.20000000298023224 1.0
0.4000000059604645 0.4000000059604645 0.0
0.4000000059604645 0.4000000059604645 1.0
0.4000000059604645 0.6000000238418579 0.0
0.4000000059604645 0.6000000238418579 1.0
0.4000000059604645 0.800000011920929 0.0
0.4000000059604645 0.800000011920929 1.0
0.4000000059604645 1.0 0.0
0.4000000059604645 1.0 0.20000000298023224
0.4000000059604645 1.0 0.4000000059604645
0.4000000059604645 1.0 0.6000000238418579
0.4000000059604645 1.0 0.800000011920929
0.4000000059604645 1.0 1.0
0.6000000238418579 0.0 0.0
0.6000000238418579 0.0 0.20000000298023224
0.6000000238418579 0.0 0.4000000059604645
0.6000000238418579 0.0 0.6000000238418579
0.6000000238418579 0.0 0.800000011920929
0.6000000238418579 0.0 1.0
0.6000000238418579 0.20000000298023224 0.0
0.6000000238418579 0.20000000298023224 1.0
0.6000000238418579 0.4000000059604645 0.0
0.6000000238418579 0.4000000059604645 1.0
0.6000000238418579 0.6000000238418579 0.0
0.6000000238418579 0.6000000238418579 1.0
0.6000000238418579 0.800000011920929 0.0
0.6000000238418579 0.800000011920929 1.0
0.6000000238418579 1.0 0.0
0.6000000238418579 1.0 0.20000000298023224
0.6000000238418579 1.0 0.4000000059604645
0.6000000238418579 1.0 0.6000000238418579
0.6000000238418579 1.0 0.800000011920929
0.6000000238418579 1.0 1.0
0.800000011920929 0.0 0.0
0.800000011920929 0.0 0.20000000298023224
0.800000011920929 0.0 0.4000000059604645
0.800000011920929 0.0 0.6000000238418579
0.800000011920929 0.0 0.800000011920929
0.800000011920929 0.0 1.0
0.800000011920929 0.20000000298023224 0.0
0.800000011920929 0.20000000298023224 1.0
0.800000011920929 0.4000000059604645 0.0
0.800000011920929 0.4000000059604645 1.0
0.800000011920929 0.6000000238418579 0.0
0.800000011920929 0.6000000238418579 1.0
0.800000011920929 0.800000011920929 0.0
0.800000011920929 0.800000011920929 1.0
0.800000011920929 1.0 0.0
0.800000011920929 1.0 0.20000000298023224
0.800000011920929 1.0 0.4000000059604645
0.800000011920929 1.0 0.6000000238418579
0.800000011920929 1.0 0.800000011920929
0.800000011920929 1.0 1.0
1.0 0.0 0.0
1.0 0.0 0.20000000298023224
1.0 0.0 0.4000000059604645
1.0 0.0 0.6000000238418579
1.0 0.0 0.800000011920929
1.0 0.0 1.0
1.0 0.20000000298023224 0.0
1.0 0.20000000298023224 0.20000000298023224
1.0 0.20000000298023224 0.4000000059604645
1.0 0.20000000298023224 0.6000000238418579
1.0 0.20000000298023224 0.800000011920929
1.0 0.20000000298023224 1.0
1.0 0.4000000059604645 0.0
1.0 0.4000000059604645 0.20000000298023224
1.0 0.4000000059604645 0.4000000059604645
1.0 0.4000000059604645 0.6000000238418579
1.0 0.4000000059604645 0.800000011920929
1.0 0.4000000059604645 1.0
1.0 0.6000000238418579 0.0
1.0 0.6000000238418579 0.20000000298023224
1.0 0.6000000238418579 0.4000000059604645
1.0 0.6000000238418579 0.6000000238418579
1.0 0.6000000238418579 0.800000011920929
1.0 0.6000000238418579 1.0
1.0 0.800000011920929 0.0
1.0 0.800000011920929 0.20000000298023224
1.0 0.800000011920929 0.4000000059604645
1.0 0.800000011920929 0.6000000238418579
1.0 0.800000011920929 0.800000011920929
1.0 0.800000011920929 1.0
1.0 1.0 0.0
1.0 1.0 0.20000000298023224
1.0 1.0 0.4000000059604645
1.0 1.0 0.6000000238418579
1.0 1.0 0.800000011920929
1.0 1.0 1.0
3 0 36 42
3 0 42 6
3 6 42 44
3 6 44 12
3 12 44 46
3 12 46 18
3 18 46 48
3 18 48 24
3 24 48 50
3 24 50 30
3 36 56 62
3 36 62 42
3 42 62 64
3 42 64 44
3 44 64 66
3 44 66 46
3 46 66 68
3 46 68 48
3 48 68 70
3 48 70 50
3 56 76 82
3 56 82 62
3 62 82 84
3 62 84 64
3 64 84 86
3 64 86 66
3 66 86 88
3 66 88 68
3 68 88 90
3 68 90 70
3 76 96 102
3 76 102 82
3 82 102 104
3 82 104 84
3 84 104 106
3 84 106 86
3 86 106 108
3 86 108 88
3 88 108 110
3 88 110 90
3 96 116 122
3 96 122 102
3 102 122 128
3 102 128 104
3 104 128 134
3 104 134 106
3 106 134 140
3 106 140 108
3 108 140 146
3 108 146 110
3 5 43 41
3 5 11 43
3 11 45 43
3 11 17 45
3 17 47 45
3 17 23 47
3 23 49 47
3 23 29 49
3 29 55 49
3 29 35 55
3 41 63 61
3 41 43 63
3 43 65 63
3 43 45 65
3 45 67 65
3 45 47 67
3 47 69 67
3 47 49 69
3 49 75 69
3 49 55 75
3 61 83 81
3 61 63 83
3 63 85 83
3 63 65 85
3 65 87 85
3 65 67 87
3 67 89 87
3 67 69 89
3 69 95 89
3 69 75 95
3 81 103 101
3 81 83 103
3 83 105 103
3 83 85 105
3 85 107 105
3 85 87 107
3 87 109 107
3 87 89 109
3 89 115 109
3 89 95 115
3 101 127 121
3 101 103 127
3 103 133 127
3 103 105 133
3 105 139 133
3 105 107 139
3 107 145 139
3 107 109 145
3 109 151 145
3 109 115 151
3 0 37 36
3 0 1 37
3 1 38 37
3 1 2 38
3 2 39 38
3 2 3 39
3 3 40 39
3 3 4 40
3 4 41 40
3 4 5 41
3 36 57 56
3 36 37 57
3 37 58 57
3 37 38 58
3 38 59 58
3 38 39 59
3 39 60 59
3 39 40 60
3 40 61 60
3 40 41 61
3 56 77 76
3 56 57 77
3 57 78 77
3 57 58 78
3 58 79 78
3 58 59 79
3 59 80 79
3 59 60 80
3 60 81 80
3 60 61 81
3 76 97 96
3 76 77 97
3 77 98 97
3 77 78 98
3 78 99 98
3 78 79 99
3 79 100 99
3 79 80 100
3 80 101 100
3 80 81 101
3 96 117 116
3 96 97 117
3 97 118 117
3 97 98 118
3 98 119 118
3 98 99 119
3 99 120 119
3 99 100 120
3 100 121 120
3 100 101 121
3 30 50 51
3 30 51 31
3 31 51 52
3 31 52 32
3 32 52 53
3 32 53 33
3 33 53 54
3 33 54 34
3 34 54 55
3 34 55 35
3 50 70 71
3 50 71 51
3 51 71 72
3 51 72 52
3 52 72 73
3 52 73 53
3 53 73 74
3 53 74 54
3 54 74 75
3 54 75 55
3 70 90 91
3 70 91 71
3 71 91 92
3 71 92 72
3 72 92 93
3 72 93 73
3 73 93 94
3 73 94 74
3 74 94 95
3 74 95 75
3 90 110 111
3 90 111 91
3 91 111 112
3 91 112 92
3 92 112 113
3 92 113 93
3 93 113 114
3 93 114 94
3 94 114 115
3 94 115 95
3 110 146 147
3 110 147 111
3 111 147 148
3 111 148 112
3 112 148 149
3 112 149 113
3 113 149 150
3 113 150 114
3 114 150 151
3 114 151 115
3 0 6 7
3 0 7 1
3 1 7 8
3 1 8 2
3 2 8 9
3 2 9 3
3 3 9 10
3 3 10 4
3 4 10 11
3 4 11 5
3 6 12 13
3 6 13 7
3 7 13 14
3 7 14 8
3 8 14 15
3 8 15 9
3 9 15 16
3 9 16 10
3 10 16 17
3 10 17 11
3 12 18 19
3 12 19 13
3 13 19 20
3 13 20 14
3 14 20 21
3 14 21 15
3 15 21 22
3 15 22 16
3 16 22 23
3 16 23 17
3 18 24 25
3 18 25 19
3 19 25 26
3 19 26 20
3 20 26 27
3 20 27 21
3 21 27 28
3 21 28 22
3 22 28 29
3 22 29 23
3 24 30 31
3 24 31 25
3 25 31 32
3 25 32 26
3 26 32 33
3 26 33 27
3 27 33 34
3 27 34 28
3 28 34 35
3 28 35 29
3 116 123 122
3 116 117 123
3 117 124 123
3 117 118 124
3 118 125 124
3 118 119 125
3 119 126 125
3 119 120 126
3 120 127 126
3 120 121 127
3 122 129 128
3 122 123 129
3 123 130 129
3 123 124 130
3 124 131 130
3 124 125 131
3 125 132 131
3 125 126 132
3 126 133 132
3 126 127 133
3 128 135 134
3 128 129 135
3 129 136 135
3 129 130 136
3 130 137 136
3 130 131 137
3 131 138 137
3 131 132 138
3 132 139 138
3 132 133 139
3 134 141 140
3 134 135 141
3 135 142 141
3 135 136 142
3 136 143 142
3 136 137 143
3 137 144 143
3 137 138 144
3 138 145 144
3 138 139 145
3 140 147 146
3 140 141 147
3 141 148 147
3 141 142 148
3 142 149 148
3 142 143 149
3 143 150 149
3 143 144 150
3 144 151 150
3 144 145 151
