ply
format ascii 1.0
element vertex 488
property float x
property float y
property float z
element face 972
property list uchar int vertex_index
end_header
0.0 0.0 0.0
0.0 0.0 0.1111111119389534
0.0 0.0 0.2222222238779068
0.0 0.0 0.3333333432674408
0.0 0.0 0.4444444477558136
0.0 0.0 0.5555555820465088
0.0 0.0 0.6666666865348816
0.0 0.0 0.7777777910232544
0.0 0.0 0.8888888955116272
0.0 0.0 1.0
0.0 0.1111111119389534 0.0
0.0 0.1111111119389534 0.1111111119389534
0.0 0.1111111119389534 0.2222222238779068
0.0 0.1111111119389534 0.3333333432674408
0.0 0.1111111119389534 0.4444444477558136
0.0 0.1111111119389534 0.5555555820465088
0.0 0.1111111119389534 0.6666666865348816
0.0 0.1111111119389534 0.7777777910232544
0.0 0.1111111119389534 0.8888888955116272
0.0 0.1111111119389534 1.0
0.0 0.2222222238779068 0.0
0.0 0.2222222238779068 0.1111111119389534
0.0 0.2222222238779068 0.2222222238779068
0.0 0.2222222238779068 0.3333333432674408
0.0 0.2222222238779068 0.4444444477558136
0.0 0.2222222238779068 0.5555555820465088
0.0 0.2222222238779068 0.6666666865348816
0.0 0.2222222238779068 0.7777777910232544
0.0 0.2222222238779068 0.8888888955116272
0.0 0.2222222238779068 1.0
0.0 0.3333333432674408 0.0
0.0 0.3333333432674408 0.1111111119389534
0.0 0.3333333432674408 0.2222222238779068
0.0 0.3333333432674408 0.3333333432674408
0.0 0.3333333432674408 0.4444444477558136
0.0 0.3333333432674408 0.5555555820465088
0.0 0.3333333432674408 0.6666666865348816
0.0 0.3333333432674408 0.7777777910232544
0.0 0.3333333432674408 0.8888888955116272
0.0 0.3333333432674408 1.0
0.0 0.4444444477558136 0.0
0.0 0.4444444477558136 0.1111111119389534
0.0 0.4444444477558136 0.2222222238779068
0.0 0.4444444477558136 0.3333333432674408
0.0 0.4444444477558136 0.4444444477558136
0.0 0.4444444477558136 0.5555555820465088
0.0 0.4444444477558136 0.6666666865348816
0.0 0.4444444477558136 0.7777777910232544
0.0 0.4444444477558136 0.8888888955116272
0.0 0.4444444477558136 1.0
0.0 0.5555555820465088 0.0
0.0 0.5555555820465088 0.1111111119389534
0.0 0.5555555820465088 0.2222222238779068
0.0 0.5555555820465088 0.3333333432674408
0.0 0.5555555820465088 0.4444444477558136
0.0 0.5555555820465088 0.5555555820465088
0.0 0.5555555820465088 0.6666666865348816
0.0 0.5555555820465088 0.7777777910232544
0.0 0.5555555820465088 0.8888888955116272
0.0 0.5555555820465088 1.0
0.0 0.6666666865348816 0.0
0.0 0.6666666865348816 0.1111111119389534
0.0 0.6666666865348816 0.2222222238779068
0.0 0.6666666865348816 0.3333333432674408
0.0 0.6666666865348816 0.4444444477558136
0.0 0.6666666865348816 0.5555555820465088
0.0 0.6666666865348816 0.6666666865348816
0.0 0.6666666865348816 0.7777777910232544
0.0 0.6666666865348816 0.8888888955116272
0.0 0.6666666865348816 1.0
0.0 0.7777777910232544 0.0
0.0 0.7777777910232544 0.1111111119389534
0.0 0.7777777910232544 0.2222222238779068
0.0 0.7777777910232544 0.3333333432674408
0.0 0.7777777910232544 0.4444444477558136
0.0 0.7777777910232544 0.5555555820465088
0.0 0.7777777910232544 0.6666666865348816
0.0 0.7777777910232544 0.7777777910232544
0.0 0.7777777910232544 0.8888888955116272
0.0 0.7777777910232544 1.0
0.0 0.8888888955116272 0.0
0.0 0.8888888955116272 0.1111111119389534
0.0 0.8888888955116272 0.2222222238779068
0.0 0.8888888955116272 0.3333333432674408
0.0 0.8888888955116272 0.4444444477558136
0.0 0.8888888955116272 0.5555555820465088
0.0 0.8888888955116272 0.6666666865348816
0.0 0.8888888955116272 0.7777777910232544
0.0 0.8888888955116272 0.8888888955116272
0.0 0.8888888955116272 1.0
0.0 1.0 0.0
0.0 1.0 0.1111111119389534
0.0 1.0 0.2222222238779068
0.0 1.0 0.3333333432674408
0.0 1.0 0.4444444477558136
0.0 1.0 0.5555555820465088
0.0 1.0 0.6666666865348816
0.0 1.0 0.7777777910232544
0.0 1.0 0.8888888955116272
0.0 1.0 1.0
0.1111111119389534 0.0 0.0
0.1111111119389534 0.0 0.1111111119389534
0.1111111119389534 0.0 0.2222222238779068
0.1111111119389534 0.0 0.3333333432674408
0.1111111119389534 0.0 0.4444444477558136
0.1111111119389534 0.0 0.5555555820465088
0.1111111119389534 0.0 0.6666666865348816
0.1111111119389534 0.0 0.7777777910232544
0.1111111119389534 0.0 0.8888888955116272
0.1111111119389534 0.0 1.0
0.1111111119389534 0.1111111119389534 0.0
0.1111111119389534 0.1111111119389534 1.0
0.1111111119389534 0.2222222238779068 0.0
0.1111111119389534 0.2222222238779068 1.0
0.1111111119389534 0.3333333432674408 0.0
0.1111111119389534 0.3333333432674408 1.0
0.1111111119389534 0.4444444477558136 0.0
0.1111111119389534 0.4444444477558136 1.0
0.1111111119389534 0.5555555820465088 0.0
0.1111111119389534 0.5555555820465088 1.0
0.1111111119389534 0.6666666865348816 0.0
0.1111111119389534 0.6666666865348816 1.0
0.1111111119389534 0.7777777910232544 0.0
0.1111111119389534 0.7777777910232544 1.0
0.1111111119389534 0.8888888955116272 0.0
0.1111111119389534 0.8888888955116272 1.0
0.1111111119389534 1.0 0.0
0.1111111119389534 1.0 0.1111111119389534
0.1111111119389534 1.0 0.2222222238779068
0.1111111119389534 1.0 0.3333333432674408
0.1111111119389534 1.0 0.4444444477558136
0.1111111119389534 1.0 0.5555555820465088
0.1111111119389534 1.0 0.6666666865348816
0.1111111119389534 1.0 0.7777777910232544
0.1111111119389534 1.0 0.8888888955116272
0.1111111119389534 1.0 1.0
0.2222222238779068 0.0 0.0
0.2222222238779068 0.0 0.1111111119389534
0.2222222238779068 0.0 0.2222222238779068
0.2222222238779068 0.0 0.3333333432674408
0.2222222238779068 0.0 0.4444444477558136
0.2222222238779068 0.0 0.5555555820465088
0.2222222238779068 0.0 0.6666666865348816
0.2222222238779068 0.0 0.7777777910232544
0.2222222238779068 0.0 0.8888888955116272
0.2222222238779068 0.0 1.0
0.2222222238779068 0.1111111119389534 0.0
0.2222222238779068 0.1111111119389534 1.0
0.2222222238779068 0.2222222238779068 0.0
0.2222222238779068 0.2222222238779068 1.0
0.2222222238779068 0.3333333432674408 0.0
0.2222222238779068 0.3333333432674408 1.0
0.2222222238779068 0.4444444477558136 0.0
0.2222222238779068 0.4444444477558136 1.0
0.2222222238779068 0.5555555820465088 0.0
0.2222222238779068 0.5555555820465088 1.0
0.2222222238779068 0.6666666865348816 0.0
0.2222222238779068 0.6666666865348816 1.0
0.2222222238779068 0.7777777910232544 0.0
0.2222222238779068 0.7777777910232544 1.0
0.2222222238779068 0.8888888955116272 0.0
0.2222222238779068 0.8888888955116272 1.0
0.2222222238779068 1.0 0.0
0.2222222238779068 1.0 0.1111111119389534
0.2222222238779068 1.0 0.2222222238779068
0.2222222238779068 1.0 0.3333333432674408
0.2222222238779068 1.0 0.4444444477558136
0.2222222238779068 1.0 0.5555555820465088
0.2222222238779068 1.0 0.6666666865348816
0.2222222238779068 1.0 0.7777777910232544
0.2222222238779068 1.0 0.8888888955116272
0.2222222238779068 1.0 1.0
0.3333333432674408 0.0 0.0
0.3333333432674408 0.0 0.1111111119389534
0.3333333432674408 0.0 0.2222222238779068
0.3333333432674408 0.0 0.3333333432674408
0.3333333432674408 0.0 0.4444444477558136
0.3333333432674408 0.0 0.5555555820465088
0.3333333432674408 0.0 0.6666666865348816
0.3333333432674408 0.0 0.7777777910232544
0.3333333432674408 0.0 0.8888888955116272
0.3333333432674408 0.0 1.0
0.3333333432674408 0.1111111119389534 0.0
0.3333333432674408 0.1111111119389534 1.0
0.3333333432674408 0.2222222238779068 0.0
0.3333333432674408 0.2222222238779068 1.0
0.3333333432674408 0.3333333432674408 0.0
0.3333333432674408 0.3333333432674408 1.0
0.3333333432674408 0.4444444477558136 0.0
0.3333333432674408 0.4444444477558136 1.0
0.3333333432674408 0.5555555820465088 0.0
0.3333333432674408 0.5555555820465088 1.0
0.3333333432674408 0.6666666865348816 0.0
0.3333333432674408 0.6666666865348816 1.0
0.3333333432674408 0.7777777910232544 0.0
0.3333333432674408 0.7777777910232544 1.0
0.3333333432674408 0.8888888955116272 0.0
0.3333333432674408 0.8888888955116272 1.0
0.3333333432674408 1.0 0.0
0.3333333432674408 1.0 0.1111111119389534
0.3333333432674408 1.0 0.2222222238779068
0.3333333432674408 1.0 0.3333333432674408
0.3333333432674408 1.0 0.4444444477558136
0.3333333432674408 1.0 0.5555555820465088
0.3333333432674408 1.0 0.6666666865348816
0.3333333432674408 1.0 0.7777777910232544
0.3333333432674408 1.0 0.8888888955116272
0.3333333432674408 1.0 1.0
0.4444444477558136 0.0 0.0
0.4444444477558136 0.0 0.1111111119389534
0.4444444477558136 0.0 0.2222222238779068
0.4444444477558136 0.0 0.3333333432674408
0.4444444477558136 0.0 0.4444444477558136
0.4444444477558136 0.0 0.5555555820465088
0.4444444477558136 0.0 0.6666666865348816
0.4444444477558136 0.0 0.7777777910232544
0.4444444477558136 0.0 0.8888888955116272
0.4444444477558136 0.0 1.0
0.4444444477558136 0.1111111119389534 0.0
0.4444444477558136 0.1111111119389534 1.0
0.4444444477558136 0.2222222238779068 0.0
0.4444444477558136 0.2222222238779068 1.0
0.4444444477558136 0.3333333432674408 0.0
0.4444444477558136 0.3333333432674408 1.0
0.4444444477558136 0.4444444477558136 0.0
0.4444444477558136 0.4444444477558136 1.0
0.4444444477558136 0.5555555820465088 0.0
0.4444444477558136 0.5555555820465088 1.0
0.4444444477558136 0.6666666865348816 0.0
0.4444444477558136 0.6666666865348816 1.0
0.4444444477558136 0.7777777910232544 0.0
0.4444444477558136 0.7777777910232544 1.0
0.4444444477558136 0.8888888955116272 0.0
0.4444444477558136 0.8888888955116272 1.0
0.4444444477558136 1.0 0.0
0.4444444477558136 1.0 0.1111111119389534
0.4444444477558136 1.0 0.2222222238779068
0.4444444477558136 1.0 0.3333333432674408
0.4444444477558136 1.0 0.4444444477558136
0.4444444477558136 1.0 0.5555555820465088
0.4444444477558136 1.0 0.6666666865348816
0.4444444477558136 1.0 0.7777777910232544
0.4444444477558136 1.0 0.8888888955116272
0.4444444477558136 1.0 1.0
0.5555555820465088 0.0 0.0
0.5555555820465088 0.0 0.1111111119389534
0.5555555820465088 0.0 0.2222222238779068
0.5555555820465088 0.0 0.3333333432674408
0.5555555820465088 0.0 0.4444444477558136
0.5555555820465088 0.0 0.5555555820465088
0.5555555820465088 0.0 0.6666666865348816
0.5555555820465088 0.0 0.7777777910232544
0.5555555820465088 0.0 0.8888888955116272
0.5555555820465088 0.0 1.0
0.5555555820465088 0.1111111119389534 0.0
0.5555555820465088 0.1111111119389534 1.0
0.5555555820465088 0.2222222238779068 0.0
0.5555555820465088 0.2222222238779068 1.0
0.5555555820465088 0.3333333432674408 0.0
0.5555555820465088 0.3333333432674408 1.0
0.5555555820465088 0.4444444477558136 0.0
0.5555555820465088 0.4444444477558136 1.0
0.5555555820465088 0.5555555820465088 0.0
0.5555555820465088 0.5555555820465088 1.0
0.5555555820465088 0.6666666865348816 0.0
0.5555555820465088 0.6666666865348816 1.0
0.5555555820465088 0.7777777910232544 0.0
0.5555555820465088 0.7777777910232544 1.0
0.5555555820465088 0.8888888955116272 0.0
0.5555555820465088 0.8888888955116272 1.0
0.5555555820465088 1.0 0.0
0.5555555820465088 1.0 0.1111111119389534
0.5555555820465088 1.0 0.2222222238779068
0.5555555820465088 1.0 0.3333333432674408
0.5555555820465088 1.0 0.4444444477558136
0.5555555820465088 1.0 0.5555555820465088
0.5555555820465088 1.0 0.6666666865348816
0.5555555820465088 1.0 0.7777777910232544
0.5555555820465088 1.0 0.8888888955116272
0.5555555820465088 1.0 1.0
0.6666666865348816 0.0 0.0
0.6666666865348816 0.0 0.1111111119389534
0.6666666865348816 0.0 0.2222222238779068
0.6666666865348816 0.0 0.3333333432674408
0.6666666865348816 0.0 0.4444444477558136
0.6666666865348816 0.0 0.5555555820465088
0.6666666865348816 0.0 0.6666666865348816
0.6666666865348816 0.0 0.7777777910232544
0.6666666865348816 0.0 0.8888888955116272
0.6666666865348816 0.0 1.0
0.6666666865348816 0.1111111119389534 0.0
0.6666666865348816 0.1111111119389534 1.0
0.6666666865348816 0.2222222238779068 0.0
0.6666666865348816 0.2222222238779068 1.0
0.6666666865348816 0.3333333432674408 0.0
0.6666666865348816 0.3333333432674408 1.0
0.6666666865348816 0.4444444477558136 0.0
0.6666666865348816 0.4444444477558136 1.0
0.6666666865348816 0.5555555820465088 0.0
0.6666666865348816 0.5555555820465088 1.0
0.6666666865348816 0.6666666865348816 0.0
0.6666666865348816 0.6666666865348816 1.0
0.6666666865348816 0.7777777910232544 0.0
0.6666666865348816 0.7777777910232544 1.0
0.6666666865348816 0.8888888955116272 0.0
0.6666666865348816 0.8888888955116272 1.0
0.6666666865348816 1.0 0.0
0.6666666865348816 1.0 0.1111111119389534
0.6666666865348816 1.0 0.2222222238779068
0.6666666865348816 1.0 0.3333333432674408
0.6666666865348816 1.0 0.4444444477558136
0.6666666865348816 1.0 0.5555555820465088
0.6666666865348816 1.0 0.6666666865348816
0.6666666865348816 1.0 0.7777777910232544
0.6666666865348816 1.0 0.8888888955116272
0.6666666865348816 1.0 1.0
0.7777777910232544 0.0 0.0
0.7777777910232544 0.0 0.1111111119389534
0.7777777910232544 0.0 0.2222222238779068
0.7777777910232544 0.0 0.3333333432674408
0.7777777910232544 0.0 0.4444444477558136
0.7777777910232544 0.0 0.5555555820465088
0.7777777910232544 0.0 0.6666666865348816
0.7777777910232544 0.0 0.7777777910232544
0.7777777910232544 0.0 0.8888888955116272
0.7777777910232544 0.0 1.0
0.7777777910232544 0.1111111119389534 0.0
0.7777777910232544 0.1111111119389534 1.0
0.7777777910232544 0.2222222238779068 0.0
0.7777777910232544 0.2222222238779068 1.0
0.7777777910232544 0.3333333432674408 0.0
0.7777777910232544 0.3333333432674408 1.0
0.7777777910232544 0.4444444477558136 0.0
0.7777777910232544 0.4444444477558136 1.0
0.7777777910232544 0.5555555820465088 0.0
0.7777777910232544 0.5555555820465088 1.0
0.7777777910232544 0.6666666865348816 0.0
0.7777777910232544 0.6666666865348816 1.0
0.7777777910232544 0.7777777910232544 0.0
0.7777777910232544 0.7777777910232544 1.0
0.7777777910232544 0.8888888955116272 0.0
0.7777777910232544 0.8888888955116272 1.0
0.7777777910232544 1.0 0.0
0.7777777910232544 1.0 0.1111111119389534
0.7777777910232544 1.0 0.2222222238779068
0.7777777910232544 1.0 0.3333333432674408
0.7777777910232544 1.0 0.4444444477558136
0.7777777910232544 1.0 0.5555555820465088
0.7777777910232544 1.0 0.6666666865348816
0.7777777910232544 1.0 0.7777777910232544
0.7777777910232544 1.0 0.8888888955116272
0.7777777910232544 1.0 1.0
0.8888888955116272 0.0 0.0
0.8888888955116272 0.0 0.1111111119389534
0.8888888955116272 0.0 0.2222222238779068
0.8888888955116272 0.0 0.3333333432674408
0.8888888955116272 0.0 0.4444444477558136
0.8888888955116272 0.0 0.5555555820465088
0.8888888955116272 0.0 0.6666666865348816
0.8888888955116272 0.0 0.7777777910232544
0.8888888955116272 0.0 0.8888888955116272
0.8888888955116272 0.0 1.0
0.8888888955116272 0.1111111119389534 0.0
0.8888888955116272 0.1111111119389534 1.0
0.8888888955116272 0.2222222238779068 0.0
0.8888888955116272 0.2222222238779068 1.0
0.8888888955116272 0.3333333432674408 0.0
0.8888888955116272 0.3333333432674408 1.0
0.8888888955116272 0.4444444477558136 0.0
0.8888888955116272 0.4444444477558136 1.0
0.8888888955116272 0.5555555820465088 0.0
0.8888888955116272 0.5555555820465088 1.0
0.8888888955116272 0.6666666865348816 0.0
0.8888888955116272 0.6666666865348816 1.0
0.8888888955116272 0.7777777910232544 0.0
0.8888888955116272 0.7777777910232544 1.0
0.8888888955116272 0.8888888955116272 0.0
0.8888888955116272 0.8888888955116272 1.0
0.8888888955116272 1.0 0.0
0.8888888955116272 1.0 0.1111111119389534
0.8888888955116272 1.0 0.2222222238779068
0.8888888955116272 1.0 0.3333333432674408
0.8888888955116272 1.0 0.4444444477558136
0.8888888955116272 1.0 0.5555555820465088
0.8888888955116272 1.0 0.6666666865348816
0.8888888955116272 1.0 0.7777777910232544
0.8888888955116272 1.0 0.8888888955116272
0.8888888955116272 1.0 1.0
1.0 0.0 0.0
1.0 0.0 0.1111111119389534
1.0 0.0 0.2222222238779068
1.0 0.0 0.3333333432674408
1.0 0.0 0.4444444477558136
1.0 0.0 0.5555555820465088
1.0 0.0 0.6666666865348816
1.0 0.0 0.7777777910232544
1.0 0.0 0.8888888955116272
1.0 0.0 1.0
1.0 0.1111111119389534 0.0
1.0 0.1111111119389534 0.1111111119389534
1.0 0.1111111119389534 0.2222222238779068
1.0 0.1111111119389534 0.3333333432674408
1.0 0.1111111119389534 0.4444444477558136
1.0 0.1111111119389534 0.5555555820465088
1.0 0.1111111119389534 0.6666666865348816
1.0 0.1111111119389534 0.7777777910232544
1.0 0.1111111119389534 0.8888888955116272
1.0 0.1111111119389534 1.0
1.0 0.2222222238779068 0.0
1.0 0.2222222238779068 0.1111111119389534
1.0 0.2222222238779068 0.2222222238779068
1.0 0.2222222238779068 0.3333333432674408
1.0 0.2222222238779068 0.4444444477558136
1.0 0.2222222238779068 0.5555555820465088
1.0 0.2222222238779068 0.6666666865348816
1.0 0.2222222238779068 0.7777777910232544
1.0 0.2222222238779068 0.8888888955116272
1.0 0.2222222238779068 1.0
1.0 0.3333333432674408 0.0
1.0 0.3333333432674408 0.1111111119389534
1.0 0.3333333432674408 0.2222222238779068
1.0 0.3333333432674408 0.3333333432674408
1.0 0.3333333432674408 0.4444444477558136
1.0 0.3333333432674408 0.5555555820465088
1.0 0.3333333432674408 0.6666666865348816
1.0 0.3333333432674408 0.7777777910232544
1.0 0.3333333432674408 0.8888888955116272
1.0 0.3333333432674408 1.0
1.0 0.4444444477558136 0.0
1.0 0.4444444477558136 0.1111111119389534
1.0 0.4444444477558136 0.2222222238779068
1.0 0.4444444477558136 0.3333333432674408
1.0 0.4444444477558136 0.4444444477558136
1.0 0.4444444477558136 0.5555555820465088
1.0 0.4444444477558136 0.6666666865348816
1.0 0.4444444477558136 0.7777777910232544
1.0 0.4444444477558136 0.8888888955116272
1.0 0.4444444477558136 1.0
1.0 0.5555555820465088 0.0
1.0 0.5555555820465088 0.1111111119389534
1.0 0.5555555820465088 0.2222222238779068
1.0 0.5555555820465088 0.3333333432674408
1.0 0.5555555820465088 0.4444444477558136
1.0 0.5555555820465088 0.5555555820465088
1.0 0.5555555820465088 0.6666666865348816
1.0 0.5555555820465088 0.7777777910232544
1.0 0.5555555820465088 0.8888888955116272
1.0 0.5555555820465088 1.0
1.0 0.6666666865348816 0.0
1.0 0.6666666865348816 0.1111111119389534
1.0 0.6666666865348816 0.2222222238779068
1.0 0.6666666865348816 0.3333333432674408
1.0 0.6666666865348816 0.4444444477558136
1.0 0.6666666865348816 0.5555555820465088
1.0 0.6666666865348816 0.6666666865348816
1.0 0.6666666865348816 0.7777777910232544
1.0 0.6666666865348816 0.8888888955116272
1.0 0.6666666865348816 1.0
1.0 0.7777777910232544 0.0
1.0 0.7777777910232544 0.1111111119389534
1.0 0.7777777910232544 0.2222222238779068
1.0 0.7777777910232544 0.3333333432674408
1.0 0.7777777910232544 0.4444444477558136
1.0 0.7777777910232544 0.5555555820465088
1.0 0.7777777910232544 0.6666666865348816
1.0 0.7777777910232544 0.7777777910232544
1.0 0.7777777910232544 0.8888888955116272
1.0 0.7777777910232544 1.0
1.0 0.8888888955116272 0.0
1.0 0.8888888955116272 0.1111111119389534
1.0 0.8888888955116272 0.2222222238779068
1.0 0.8888888955116272 0.3333333432674408
1.0 0.8888888955116272 0.4444444477558136
1.0 0.8888888955116272 0.5555555820465088
1.0 0.8888888955116272 0.6666666865348816
1.0 0.8888888955116272 0.7777777910232544
1.0 0.8888888955116272 0.8888888955116272
1.0 0.8888888955116272 1.0
1.0 1.0 0.0
1.0 1.0 0.1111111119389534
1.0 1.0 0.2222222238779068
1.0 1.0 0.3333333432674408
1.0 1.0 0.4444444477558136
1.0 1.0 0.5555555820465088
1.0 1.0 0.6666666865348816
1.0 1.0 0.7777777910232544
1.0 1.0 0.8888888955116272
1.0 1.0 1.0
3 0 100 110
3 0 110 10
3 10 110 112
3 10 112 20
3 20 112 114
3 20 114 30
3 30 114 116
3 30 116 40
3 40 116 118
3 40 118 50
3 50 118 120
3 50 120 60
3 60 120 122
3 60 122 70
3 70 122 124
3 70 124 80
3 80 124 126
3 80 126 90
3 100 136 146
3 100 146 110
3 110 146 148
3 110 148 112
3 112 148 150
3 112 150 114
3 114 150 152
3 114 152 116
3 116 152 154
3 116 154 118
3 118 154 156
3 118 156 120
3 120 156 158
3 120 158 122
3 122 158 160
3 122 160 124
3 124 160 162
3 124 162 126
3 136 172 182
3 136 182 146
3 146 182 184
3 146 184 148
3 148 184 186
3 148 186 150
3 150 186 188
3 150 188 152
3 152 188 190
3 152 190 154
3 154 190 192
3 154 192 156
3 156 192 194
3 156 194 158
3 158 194 196
3 158 196 160
3 160 196 198
3 160 198 162
3 172 208 218
3 172 218 182
3 182 218 220
3 182 220 184
3 184 220 222
3 184 222 186
3 186 222 224
3 186 224 188
3 188 224 226
3 188 226 190
3 190 226 228
3 190 228 192
3 192 228 230
3 192 230 194
3 194 230 232
3 194 232 196
3 196 232 234
3 196 234 198
3 208 244 254
3 208 254 218
3 218 254 256
3 218 256 220
3 220 256 258
3 220 258 222
3 222 258 260
3 222 260 224
3 224 260 262
3 224 262 226
3 226 262 264
3 226 264 228
3 228 264 266
3 228 266 230
3 230 266 268
3 230 268 232
3 232 268 270
3 232 270 234
3 244 280 290
3 244 290 254
3 254 290 292
3 254 292 256
3 256 292 294
3 256 294 258
3 258 294 296
3 258 296 260
3 260 296 298
3 260 298 262
3 262 298 300
3 262 300 264
3 264 300 302
3 264 302 266
3 266 302 304
3 266 304 268
3 268 304 306
3 268 306 270
3 280 316 326
3 280 326 290
3 290 326 328
3 290 328 292
3 292 328 330
3 292 330 294
3 294 330 332
3 294 332 296
3 296 332 334
3 296 334 298
3 298 334 336
3 298 336 300
3 300 336 338
3 300 338 302
3 302 338 340
3 302 340 304
3 304 340 342
3 304 342 306
3 316 352 362
3 316 362 326
3 326 362 364
3 326 364 328
3 328 364 366
3 328 366 330
3 330 366 368
3 330 368 332
3 332 368 370
3 332 370 334
3 334 370 372
3 334 372 336
3 336 372 374
3 336 374 338
3 338 374 376
3 338 376 340
3 340 376 378
3 340 378 342
3 352 388 398
3 352 398 362
3 362 398 408
3 362 408 364
3 364 408 418
3 364 418 366
3 366 418 428
3 366 428 368
3 368 428 438
3 368 438 370
3 370 438 448
3 370 448 372
3 372 448 458
3 372 458 374
3 374 458 468
3 374 468 376
3 376 468 478
3 376 478 378
3 9 111 109
3 9 19 111
3 19 113 111
3 19 29 113
3 29 115 113
3 29 39 115
3 39 117 115
3 39 49 117
3 49 119 117
3 49 59 119
3 59 121 119
3 59 69 121
3 69 123 121
3 69 79 123
3 79 125 123
3 79 89 125
3 89 135 125
3 89 99 135
3 109 147 145
3 109 111 147
3 111 149 147
3 111 113 149
3 113 151 149
3 113 115 151
3 115 153 151
3 115 117 153
3 117 155 153
3 117 119 155
3 119 157 155
3 119 121 157
3 121 159 157
3 121 123 159
3 123 161 159
3 123 125 161
3 125 171 161
3 125 135 171
3 145 183 181
3 145 147 183
3 147 185 183
3 147 149 185
3 149 187 185
3 149 151 187
3 151 189 187
3 151 153 189
3 153 191 189
3 153 155 191
3 155 193 191
3 155 157 193
3 157 195 193
3 157 159 195
3 159 197 195
3 159 161 197
3 161 207 197
3 161 171 207
3 181 219 217
3 181 183 219
3 183 221 219
3 183 185 221
3 185 223 221
3 185 187 223
3 187 225 223
3 187 189 225
3 189 227 225
3 189 191 227
3 191 229 227
3 191 193 229
3 193 231 229
3 193 195 231
3 195 233 231
3 195 197 233
3 197 243 233
3 197 207 243
3 217 255 253
3 217 219 255
3 219 257 255
3 219 221 257
3 221 259 257
3 221 223 259
3 223 261 259
3 223 225 261
3 225 263 261
3 225 227 263
3 227 265 263
3 227 229 265
3 229 267 265
3 229 231 267
3 231 269 267
3 231 233 269
3 233 279 269
3 233 243 279
3 253 291 289
3 253 255 291
3 255 293 291
3 255 257 293
3 257 295 293
3 257 259 295
3 259 297 295
3 259 261 297
3 261 299 297
3 261 263 299
3 263 301 299
3 263 265 301
3 265 303 301
3 265 267 303
3 267 305 303
3 267 269 305
3 269 315 305
3 269 279 315
3 289 327 325
3 289 291 327
3 291 329 327
3 291 293 329
3 293 331 329
3 293 295 331
3 295 333 331
3 295 297 333
3 297 335 333
3 297 299 335
3 299 337 335
3 299 301 337
3 301 339 337
3 301 303 339
3 303 341 339
3 303 305 341
3 305 351 341
3 305 315 351
3 325 363 361
3 325 327 363
3 327 365 363
3 327 329 365
3 329 367 365
3 329 331 367
3 331 369 367
3 331 333 369
3 333 371 369
3 333 335 371
3 335 373 371
3 335 337 373
3 337 375 373
3 337 339 375
3 339 377 375
3 339 341 377
3 341 387 377
3 341 351 387
3 361 407 397
3 361 363 407
3 363 417 407
3 363 365 417
3 365 427 417
3 365 367 427
3 367 437 427
3 367 369 437
3 369 447 437
3 369 371 447
3 371 457 447
3 371 373 457
3 373 467 457
3 373 375 467
3 375 477 467
3 375 377 477
3 377 487 477
3 377 387 487
3 0 101 100
3 0 1 101
3 1 102 101
3 1 2 102
3 2 103 102
3 2 3 103
3 3 104 103
3 3 4 104
3 4 105 104
3 4 5 105
3 5 106 105
3 5 6 106
3 6 107 106
3 6 7 107
3 7 108 107
3 7 8 108
3 8 109 108
3 8 9 109
3 100 137 136
3 100 101 137
3 101 138 137
3 101 102 138
3 102 139 138
3 102 103 139
3 103 140 139
3 103 104 140
3 104 141 140
3 104 105 141
3 105 142 141
3 105 106 142
3 106 143 142
3 106 107 143
3 107 144 143
3 107 108 144
3 108 145 144
3 108 109 145
3 136 173 172
3 136 137 173
3 137 174 173
3 137 138 174
3 138 175 174
3 138 139 175
3 139 176 175
3 139 140 176
3 140 177 176
3 140 141 177
3 141 178 177
3 141 142 178
3 142 179 178
3 142 143 179
3 143 180 179
3 143 144 180
3 144 181 180
3 144 145 181
3 172 209 208
3 172 173 209
3 173 210 209
3 173 174 210
3 174 211 210
3 174 175 211
3 175 212 211
3 175 176 212
3 176 213 212
3 176 177 213
3 177 214 213
3 177 178 214
3 178 215 214
3 178 179 215
3 179 216 215
3 179 180 216
3 180 217 216
3 180 181 217
3 208 245 244
3 208 209 245
3 209 246 245
3 209 210 246
3 210 247 246
3 210 211 247
3 211 248 247
3 211 212 248
3 212 249 248
3 212 213 249
3 213 250 249
3 213 214 250
3 214 251 250
3 214 215 251
3 215 252 251
3 215 216 252
3 216 253 252
3 216 217 253
3 244 281 280
3 244 245 281
3 245 282 281
3 245 246 282
3 246 283 282
3 246 247 283
3 247 284 283
3 247 248 284
3 248 285 284
3 248 249 285
3 249 286 285
3 249 250 286
3 250 287 286
3 250 251 287
3 251 288 287
3 251 252 288
3 252 289 288
3 252 253 289
3 280 317 316
3 280 281 317
3 281 318 317
3 281 282 318
3 282 319 318
3 282 283 319
3 283 320 319
3 283 284 320
3 284 321 320
3 284 285 321
3 285 322 321
3 285 286 322
3 286 323 322
3 286 287 323
3 287 324 323
3 287 288 324
3 288 325 324
3 288 289 325
3 316 353 352
3 316 317 353
3 317 354 353
3 317 318 354
3 318 355 354
3 318 319 355
3 319 356 355
3 319 320 356
3 320 357 356
3 320 321 357
3 321 358 357
3 321 322 358
3 322 359 358
3 322 323 359
3 323 360 359
3 323 324 360
3 324 361 360
3 324 325 361
3 352 389 388
3 352 353 389
3 353 390 389
3 353 354 390
3 354 391 390
3 354 355 391
3 355 392 391
3 355 356 392
3 356 393 392
3 356 357 393
3 357 394 393
3 357 358 394
3 358 395 394
3 358 359 395
3 359 396 395
3 359 360 396
3 360 397 396
3 360 361 397
3 90 126 127
3 90 127 91
3 91 127 128
3 91 128 92
3 92 128 129
3 92 129 93
3 93 129 130
3 93 130 94
3 94 130 131
3 94 131 95
3 95 131 132
3 95 132 96
3 96 132 133
3 96 133 97
3 97 133 134
3 97 134 98
3 98 134 135
3 98 135 99
3 126 162 163
3 126 163 127
3 127 163 164
3 127 164 128
3 128 164 165
3 128 165 129
3 129 165 166
3 129 166 130
3 130 166 167
3 130 167 131
3 131 167 168
3 131 168 132
3 132 168 169
3 132 169 133
3 133 169 170
3 133 170 134
3 134 170 171
3 134 171 135
3 162 198 199
3 162 199 163
3 163 199 200
3 163 200 164
3 164 200 201
3 164 201 165
3 165 201 202
3 165 202 166
3 166 202 203
3 166 203 167
3 167 203 204
3 167 204 168
3 168 204 205
3 168 205 169
3 169 205 206
3 169 206 170
3 170 206 207
3 170 207 171
3 198 234 235
3 198 235 199
3 199 235 236
3 199 236 200
3 200 236 237
3 200 237 201
3 201 237 238
3 201 238 202
3 202 238 239
3 202 239 203
3 203 239 240
3 203 240 204
3 204 240 241
3 204 241 205
3 205 241 242
3 205 242 206
3 206 242 243
3 206 243 207
3 234 270 271
3 234 271 235
3 235 271 272
3 235 272 236
3 236 272 273
3 236 273 237
3 237 273 274
3 237 274 238
3 238 274 275
3 238 275 239
3 239 275 276
3 239 276 240
3 240 276 277
3 240 277 241
3 241 277 278
3 241 278 242
3 242 278 279
3 242 279 243
3 270 306 307
3 270 307 271
3 271 307 308
3 271 308 272
3 272 308 309
3 272 309 273
3 273 309 310
3 273 310 274
3 274 310 311
3 274 311 275
3 275 311 312
3 275 312 276
3 276 312 313
3 276 313 277
3 277 313 314
3 277 314 278
3 278 314 315
3 278 315 279
3 306 342 343
3 306 343 307
3 307 343 344
3 307 344 308
3 308 344 345
3 308 345 309
3 309 345 346
3 309 346 310
3 310 346 347
3 310 347 311
3 311 347 348
3 311 348 312
3 312 348 349
3 312 349 313
3 313 349 350
3 313 350 314
3 314 350 351
3 314 351 315
3 342 378 379
3 342 379 343
3 343 379 380
3 343 380 344
3 344 380 381
3 344 381 345
3 345 381 382
3 345 382 346
3 346 382 383
3 346 383 347
3 347 383 384
3 347 384 348
3 348 384 385
3 348 385 349
3 349 385 386
3 349 386 350
3 350 386 387
3 350 387 351
3 378 478 479
3 378 479 379
3 379 479 480
3 379 480 380
3 380 480 481
3 380 481 381
3 381 481 482
3 381 482 382
3 382 482 483
3 382 483 383
3 383 483 484
3 383 484 384
3 384 484 485
3 384 485 385
3 385 485 486
3 385 486 386
3 386 486 487
3 386 487 387
3 0 10 11
3 0 11 1
3 1 11 12
3 1 12 2
3 2 12 13
3 2 13 3
3 3 13 14
3 3 14 4
3 4 14 15
3 4 15 5
3 5 15 16
3 5 16 6
3 6 16 17
3 6 17 7
3 7 17 18
3 7 18 8
3 8 18 19
3 8 19 9
3 10 20 21
3 10 21 11
3 11 21 22
3 11 22 12
3 12 22 23
3 12 23 13
3 13 23 24
3 13 24 14
3 14 24 25
3 14 25 15
3 15 25 26
3 15 26 16
3 16 26 27
3 16 27 17
3 17 27 28
3 17 28 18
3 18 28 29
3 18 29 19
3 20 30 31
3 20 31 21
3 21 31 32
3 21 32 22
3 22 32 33
3 22 33 23
3 23 33 34
3 23 34 24
3 24 34 35
3 24 35 25
3 25 35 36
3 25 36 26
3 26 36 37
3 26 37 27
3 27 37 38
3 27 38 28
3 28 38 39
3 28 39 29
3 30 40 41
3 30 41 31
3 31 41 42
3 31 42 32
3 32 42 43
3 32 43 33
3 33 43 44
3 33 44 34
3 34 44 45
3 34 45 35
3 35 45 46
3 35 46 36
3 36 46 47
3 36 47 37
3 37 47 48
3 37 48 38
3 38 48 49
3 38 49 39
3 40 50 51
3 40 51 41
3 41 51 52
3 41 52 42
3 42 52 53
3 42 53 43
3 43 53 54
3 43 54 44
3 44 54 55
3 44 55 45
3 45 55 56
3 45 56 46
3 46 56 57
3 46 57 47
3 47 57 58
3 47 58 48
3 48 58 59
3 48 59 49
3 50 60 61
3 50 61 51
3 51 61 62
3 51 62 52
3 52 62 63
3 52 63 53
3 53 63 64
3 53 64 54
3 54 64 65
3 54 65 55
3 55 65 66
3 55 66 56
3 56 66 67
3 56 67 57
3 57 67 68
3 57 68 58
3 58 68 69
3 58 69 59
3 60 70 71
3 60 71 61
3 61 71 72
3 61 72 62
3 62 72 73
3 62 73 63
3 63 73 74
3 63 74 64
3 64 74 75
3 64 75 65
3 65 75 76
3 65 76 66
3 66 76 77
3 66 77 67
3 67 77 78
3 67 78 68
3 68 78 79
3 68 79 69
3 70 80 81
3 70 81 71
3 71 81 82
3 71 82 72
3 72 82 83
3 72 83 73
3 73 83 84
3 73 84 74
3 74 84 85
3 74 85 75
3 75 85 86
3 75 86 76
3 76 86 87
3 76 87 77
3 77 87 88
3 77 88 78
3 78 88 89
3 78 89 79
3 80 90 91
3 80 91 81
3 81 91 92
3 81 92 82
3 82 92 93
3 82 93 83
3 83 93 94
3 83 94 84
3 84 94 95
3 84 95 85
3 85 95 96
3 85 96 86
3 86 96 97
3 86 97 87
3 87 97 98
3 87 98 88
3 88 98 99
3 88 99 89
3 388 399 398
3 388 389 399
3 389 400 399
3 389 390 400
3 390 401 400
3 390 391 401
3 391 402 401
3 391 392 402
3 392 403 402
3 392 393 403
3 393 404 403
3 393 394 404
3 394 405 404
3 394 395 405
3 395 406 405
3 395 396 406
3 396 407 406
3 396 397 407
3 398 409 408
3 398 399 409
3 399 410 409
3 399 400 410
3 400 411 410
3 400 401 411
3 401 412 411
3 401 402 412
3 402 413 412
3 402 403 413
3 403 414 413
3 403 404 414
3 404 415 414
3 404 405 415
3 405 416 415
3 405 406 416
3 406 417 416
3 406 407 417
3 408 419 418
3 408 409 419
3 409 420 419
3 409 410 420
3 410 421 420
3 410 411 421
3 411 422 421
3 411 412 422
3 412 423 422
3 412 413 423
3 413 424 423
3 413 414 424
3 414 425 424
3 414 415 425
3 415 426 425
3 415 416 426
3 416 427 426
3 416 417 427
3 418 429 428
3 418 419 429
3 419 430 429
3 419 420 430
3 420 431 430
3 420 421 431
3 421 432 431
3 421 422 432
3 422 433 432
3 422 423 433
3 423 434 433
3 423 424 434
3 424 435 434
3 424 425 435
3 425 436 435
3 425 426 436
3 426 437 436
3 426 427 437
3 428 439 438
3 428 429 439
3 429 440 439
3 429 430 440
3 430 441 440
3 430 431 441
3 431 442 441
3 431 432 442
3 432 443 442
3 432 433 443
3 433 444 443
3 433 434 444
3 434 445 444
3 434 435 445
3 435 446 445
3 435 436 446
3 436 447 446
3 436 437 447
3 438 449 448
3 438 439 449
3 439 450 449
3 439 440 450
3 440 451 450
3 440 441 451
3 441 452 451
3 441 442 452
3 442 453 452
3 442 443 453
3 443 454 453
3 443 444 454
3 444 455 454
3 444 445 455
3 445 456 455
3 445 446 456
3 446 457 456
3 446 447 457
3 448 459 458
3 448 449 459
3 449 460 459
3 449 450 460
3 450 461 460
3 450 451 461
3 451 462 461
3 451 452 462
3 452 463 462
3 452 453 463
3 453 464 463
3 453 454 464
3 454 465 464
3 454 455 465
3 455 466 465
3 455 456 466
3 456 467 466
3 456 457 467
3 458 469 468
3 458 459 469
3 459 470 469
3 459 460 470
3 460 471 470
3 460 461 471
3 461 472 471
3 461 462 472
3 462 473 472
3 462 463 473
3 463 474 473
3 463 464 474
3 464 475 474
3 464 465 475
3 465 476 475
3 465 466 476
3 466 477 476
3 466 467 477
3 468 479 478
3 468 469 479
3 469 480 479
3 469 470 480
3 470 481 480
3 470 471 481
3 471 482 481
3 471 472 482
3 472 483 482
3 472 473 483
3 473 484 483
3 473 474 484
3 474 485 484
3 474 475 485
3 475 486 485
3 475 476 486
3 476 487 486
3 476 477 487
