ply
format ascii 1.0
element vertex 56
property float x
property float y
property float z
element face 108
property list uchar int vertex_index
end_header
0.0 0.0 0.0
0.0 0.0 0.3333333432674408
0.0 0.0 0.6666666865348816
0.0 0.0 1.0
0.0 0.3333333432674408 0.0
0.0 0.3333333432674408 0.3333333432674408
0.0 0.3333333432674408 0.6666666865348816
0.0 0.3333333432674408 1.0
0.0 0.6666666865348816 0.0
0.0 0.6666666865348816 0.3333333432674408
0.0 0.6666666865348816 0.6666666865348816
0.0 0.6666666865348816 1.0
0.0 1.0 0.0
0.0 1.0 0.3333333432674408
0.0 1.0 0.6666666865348816
0.0 1.0 1.0
0.3333333432674408 0.0 0.0
0.3333333432674408 0.0 0.3333333432674408
0.3333333432674408 0.0 0.6666666865348816
0.3333333432674408 0.0 1.0
0.3333333432674408 0.3333333432674408 0.0
0.3333333432674408 0.3333333432674408 1.0
0.3333333432674408 0.6666666865348816 0.0
0.3333333432674408 0.6666666865348816 1.0
0.3333333432674408 1.0 0.0
0.3333333432674408 1.0 0.3333333432674408
0.3333333432674408 1.0 0.6666666865348816
0.3333333432674408 1.0 1.0
0.6666666865348816 0.0 0.0
0.6666666865348816 0.0 0.3333333432674408
0.6666666865348816 0.0 0.6666666865348816
0.6666666865348816 0.0 1.0
0.6666666865348816 0.3333333432674408 0.0
0.6666666865348816 0.3333333432674408 1.0
0.6666666865348816 0.6666666865348816 0.0
0.6666666865348816 0.6666666865348816 1.0
0.6666666865348816 1.0 0.0
0.6666666865348816 1.0 0.3333333432674408
0.6666666865348816 1.0 0.6666666865348816
0.6666666865348816 1.0 1.0
1.0 0.0 0.0
1.0 0.0 0.3333333432674408
1.0 0.0 0.6666666865348816
1.0 0.0 1.0
1.0 0.3333333432674408 0.0
1.0 0.3333333432674408 0.3333333432674408
1.0 0.3333333432674408 0.6666666865348816
1.0 0.3333333432674408 1.0
1.0 0.6666666865348816 0.0
1.0 0.6666666865348816 0.3333333432674408
1.0 0.6666666865348816 0.6666666865348816
1.0 0.6666666865348816 1.0
1.0 1.0 0.0
1.0 1.0 0.3333333432674408
1.0 1.0 0.6666666865348816
1.0 1.0 1.0
3 0 16 20
3 0 20 4
3 4 20 22
3 4 22 8
3 8 22 24
3 8 24 12
3 16 28 32
3 16 32 20
3 20 32 34
3 20 34 22
3 22 34 36
3 22 36 24
3 28 40 44
3 28 44 32
3 32 44 48
3 32 48 34
3 34 48 52
3 34 52 36
3 3 21 19
3 3 7 21
3 7 23 21
3 7 11 23
3 11 27 23
3 11 15 27
3 19 33 31
3 19 21 33
3 21 35 33
3 21 23 35
3 23 39 35
3 23 27 39
3 31 47 43
3 31 33 47
3 33 51 47
3 33 35 51
3 35 55 51
3 35 39 55
3 0 17 16
3 0 1 17
3 1 18 17
3 1 2 18
3 2 19 18
3 2 3 19
3 16 29 28
3 16 17 29
3 17 30 29
3 17 18 30
3 18 31 30
3 18 19 31
3 28 41 40
3 28 29 41
3 29 42 41
3 29 30 42
3 30 43 42
3 30 31 43
3 12 24 25
3 12 25 13
3 13 25 26
3 13 26 14
3 14 26 27
3 14 27 15
3 24 36 37
3 24 37 25
3 25 37 38
3 25 38 26
3 26 38 39
3 26 39 27
3 36 52 53
3 36 53 37
3 37 53 54
3 37 54 38
3 38 54 55
3 38 55 39
3 0 4 5
3 0 5 1
3 1 5 6
3 1 6 2
3 2 6 7
3 2 7 3
3 4 8 9
3 4 9 5
3 5 9 10
3 5 10 6
3 6 10 11
3 6 11 7
3 8 12 13
3 8 13 9
3 9 13 14
3 9 14 10
3 10 14 15
3 10 15 11
3 40 45 44
3 40 41 45
3 41 46 45
3 41 42 46
3 42 47 46
3 42 43 47
3 44 49 48
3 44 45 49
3 45 50 49
3 45 46 50
3 46 51 50
3 46 47 51
3 48 53 52
3 48 49 53
3 49 54 53
3 49 50 54
3 50 55 54
3 50 51 55
